<svg xmlns="http://www.w3.org/2000/svg" viewBox="0 0 900 680" role="img" aria-labelledby="title desc">
  <title id="title">Adjustable Leg Adjustment Device</title>
  <desc id="desc">Technical product-style illustration in CabFit colours.</desc>
  <rect width="900" height="680" fill="#F2F2F0"/>
  <rect x="44" y="44" width="812" height="592" fill="#FFFFFF" stroke="#D9D4C8" stroke-width="2"/>
  <g transform="translate(180 108)">
    <rect x="210" y="72" width="144" height="350" rx="18" fill="#1F2326"/>
    <rect x="242" y="108" width="80" height="278" rx="12" fill="#F2F2F0"/>
    <circle cx="282" cy="170" r="36" fill="#D4A72C"/>
    <path d="M105 405h355l-35 55H140z" fill="#1F2326"/>
    <path d="M118 405h328" stroke="#D4A72C" stroke-width="14" stroke-linecap="round"/>
    <path d="M98 134c74-64 147-64 219 0" fill="none" stroke="#1F2326" stroke-width="36" stroke-linecap="round"/>
    <path d="M448 134c-74-64-147-64-219 0" fill="none" stroke="#1F2326" stroke-width="36" stroke-linecap="round"/>
    <rect x="36" y="248" width="128" height="40" rx="20" fill="#D4A72C"/>
    <rect x="400" y="248" width="128" height="40" rx="20" fill="#D4A72C"/>
  </g>
  <g fill="#1F2326" font-family="Arial, sans-serif" font-weight="700">
    <text x="72" y="590" font-size="30">ADJUSTABLE LEG ADJUSTMENT DEVICE</text>
    <text x="72" y="624" font-size="20" fill="#6B6E70">CabFit install accessory</text>
  </g>
</svg>
