<svg xmlns="http://www.w3.org/2000/svg" viewBox="0 0 900 680" role="img" aria-labelledby="title desc">
  <title id="title">Filler Setback Jigs</title>
  <desc id="desc">Technical product-style illustration in CabFit colours.</desc>
  <rect width="900" height="680" fill="#F2F2F0"/>
  <rect x="44" y="44" width="812" height="592" fill="#FFFFFF" stroke="#D9D4C8" stroke-width="2"/>
  <g transform="translate(128 120)">
    <rect x="26" y="88" width="250" height="290" rx="18" fill="#1F2326"/>
    <rect x="356" y="88" width="250" height="290" rx="18" fill="#1F2326"/>
    <rect x="74" y="134" width="154" height="198" rx="8" fill="#F2F2F0"/>
    <rect x="404" y="134" width="154" height="198" rx="8" fill="#F2F2F0"/>
    <path d="M112 134v198M444 134v198" stroke="#D4A72C" stroke-width="18" stroke-linecap="round"/>
    <path d="M242 110h84M572 110h84" stroke="#D4A72C" stroke-width="18" stroke-linecap="round"/>
    <path d="M302 88v290M632 88v290" stroke="#D9D4C8" stroke-width="5" stroke-dasharray="14 14"/>
    <path d="M92 420h170M422 420h170" stroke="#1F2326" stroke-width="12" stroke-linecap="round"/>
    <path d="M92 420l34-34M262 420l-34-34M422 420l34-34M592 420l-34-34" stroke="#D4A72C" stroke-width="10" stroke-linecap="round"/>
  </g>
  <g fill="#1F2326" font-family="Arial, sans-serif" font-weight="700">
    <text x="72" y="590" font-size="30">FILLER SETBACK JIGS</text>
    <text x="72" y="624" font-size="20" fill="#6B6E70">Standard and Extended variants</text>
  </g>
</svg>
